<svg width="33" height="32" viewBox="0 0 33 32" fill="none" xmlns="http://www.w3.org/2000/svg">
<path d="M4.73608 23.1257L2.75867 9.80784C2.64302 9.02889 3.57761 8.54361 4.14822 9.08633L8.72365 13.4382C9.11641 13.8117 9.75622 13.7134 10.0187 13.2391L16.8654 0.865968C17.1938 0.272512 18.0574 0.304065 18.3416 0.919905L23.9369 13.0442C24.169 13.5471 24.8199 13.6847 25.2357 13.3188L30.5034 8.68208C31.0834 8.17153 31.9847 8.66354 31.869 9.42755L29.7972 23.1054C29.3644 25.9628 27.1289 28.2097 24.2738 28.6571L19.2898 29.438C18.3734 29.5816 17.4414 29.5962 16.521 29.4812L10.4671 28.7254C7.51635 28.357 5.17281 26.0672 4.73608 23.1257Z" fill="url(#paint0_linear_86_2602)" stroke="url(#paint1_linear_86_2602)" stroke-width="0.82793"/>
<path d="M13.4392 23.5197V21.7469L17.5813 17.9117C17.9335 17.5708 18.229 17.264 18.4676 16.9912C18.71 16.7185 18.8938 16.4515 19.0188 16.1901C19.1438 15.925 19.2063 15.639 19.2063 15.3322C19.2063 14.9912 19.1286 14.6977 18.9733 14.4515C18.818 14.2015 18.6059 14.0102 18.3369 13.8776C18.068 13.7412 17.7631 13.6731 17.4222 13.6731C17.0661 13.6731 16.7555 13.745 16.4904 13.889C16.2252 14.0329 16.0207 14.2393 15.8767 14.5083C15.7328 14.7772 15.6608 15.0973 15.6608 15.4685H13.3256C13.3256 14.7072 13.4979 14.0462 13.8426 13.4856C14.1873 12.925 14.6703 12.4912 15.2915 12.1844C15.9127 11.8776 16.6286 11.7242 17.4392 11.7242C18.2725 11.7242 18.9979 11.8719 19.6154 12.1674C20.2366 12.459 20.7195 12.8643 21.0642 13.3833C21.4089 13.9022 21.5813 14.4969 21.5813 15.1674C21.5813 15.6068 21.4941 16.0405 21.3199 16.4685C21.1494 16.8965 20.8445 17.3719 20.4051 17.8947C19.9657 18.4136 19.3464 19.0367 18.5472 19.764L16.8483 21.4287V21.5083H21.7347V23.5197H13.4392Z" fill="white"/>
<defs>
<linearGradient id="paint0_linear_86_2602" x1="6.31527" y1="2.39645" x2="26.8563" y2="29.29" gradientUnits="userSpaceOnUse">
<stop stop-color="#E4E7EC"/>
<stop offset="1" stop-color="#98A2B3"/>
</linearGradient>
<linearGradient id="paint1_linear_86_2602" x1="7.48542" y1="-0.187757" x2="25.6862" y2="31.8742" gradientUnits="userSpaceOnUse">
<stop stop-color="#E4E7EC"/>
<stop offset="1" stop-color="#98A2B3"/>
</linearGradient>
</defs>
</svg>
