<svg width="33" height="32" viewBox="0 0 33 32" fill="none" xmlns="http://www.w3.org/2000/svg">
<path d="M4.73608 23.1258L2.75867 9.80787C2.64302 9.02892 3.57761 8.54364 4.14822 9.08636L8.72365 13.4382C9.11641 13.8118 9.75622 13.7134 10.0187 13.2392L16.8654 0.865998C17.1938 0.272543 18.0574 0.304096 18.3416 0.919935L23.9369 13.0442C24.169 13.5472 24.8199 13.6848 25.2357 13.3188L30.5034 8.68211C31.0834 8.17156 31.9847 8.66357 31.869 9.42758L29.7972 23.1055C29.3644 25.9629 27.1289 28.2098 24.2738 28.6571L19.2898 29.4381C18.3734 29.5816 17.4414 29.5962 16.521 29.4813L10.4671 28.7254C7.51635 28.357 5.17281 26.0672 4.73608 23.1258Z" fill="url(#paint0_linear_86_2616)" stroke="url(#paint1_linear_86_2616)" stroke-width="0.82793"/>
<path d="M17.7404 23.6787C16.8919 23.6787 16.1362 23.5329 15.4733 23.2412C14.8142 22.9458 14.2934 22.5405 13.9108 22.0253C13.532 21.5064 13.3369 20.9079 13.3256 20.2299H15.8029C15.818 20.514 15.9108 20.764 16.0813 20.9799C16.2555 21.192 16.4866 21.3568 16.7744 21.4742C17.0623 21.5916 17.3862 21.6503 17.746 21.6503C18.121 21.6503 18.4525 21.584 18.7404 21.4515C19.0282 21.3189 19.2536 21.1352 19.4165 20.9003C19.5794 20.6655 19.6608 20.3947 19.6608 20.0878C19.6608 19.7772 19.5737 19.5026 19.3994 19.264C19.229 19.0215 18.9828 18.8322 18.6608 18.6958C18.3426 18.5594 17.9638 18.4912 17.5244 18.4912H16.4392V16.6844H17.5244C17.8957 16.6844 18.2233 16.62 18.5074 16.4912C18.7953 16.3625 19.0188 16.1844 19.1779 15.9572C19.3369 15.7261 19.4165 15.4572 19.4165 15.1503C19.4165 14.8587 19.3464 14.603 19.2063 14.3833C19.0699 14.1598 18.8767 13.9856 18.6267 13.8606C18.3805 13.7356 18.0926 13.6731 17.7631 13.6731C17.4297 13.6731 17.1248 13.7337 16.8483 13.8549C16.5718 13.9723 16.3502 14.1409 16.1835 14.3606C16.0169 14.5803 15.9279 14.8378 15.9165 15.1333H13.5585C13.5699 14.4628 13.7612 13.8719 14.1324 13.3606C14.5036 12.8492 15.0036 12.4496 15.6324 12.1617C16.265 11.87 16.979 11.7242 17.7744 11.7242C18.5775 11.7242 19.2801 11.87 19.8824 12.1617C20.4847 12.4534 20.9525 12.8473 21.2858 13.3435C21.6229 13.8359 21.7896 14.389 21.7858 15.0026C21.7896 15.6541 21.5869 16.1977 21.1779 16.6333C20.7725 17.0689 20.2441 17.3454 19.5926 17.4628V17.5537C20.4487 17.6636 21.1002 17.9609 21.5472 18.4458C21.9979 18.9268 22.2214 19.5291 22.2176 20.2526C22.2214 20.9155 22.0301 21.5045 21.6438 22.0197C21.2612 22.5348 20.7328 22.9401 20.0585 23.2356C19.3843 23.531 18.6116 23.6787 17.7404 23.6787Z" fill="white"/>
<defs>
<linearGradient id="paint0_linear_86_2616" x1="6.31527" y1="2.39648" x2="26.8563" y2="29.29" gradientUnits="userSpaceOnUse">
<stop stop-color="#E19055"/>
<stop offset="1" stop-color="#BC5C15"/>
</linearGradient>
<linearGradient id="paint1_linear_86_2616" x1="7.48542" y1="-0.187726" x2="25.6862" y2="31.8742" gradientUnits="userSpaceOnUse">
<stop stop-color="#FFC69C"/>
<stop offset="1" stop-color="#C1631E"/>
</linearGradient>
</defs>
</svg>
