<svg width="32" height="32" viewBox="0 0 32 32" fill="none" xmlns="http://www.w3.org/2000/svg">
<g clip-path="url(#clip0_319_15521)">
<rect width="32" height="32" rx="16" fill="#D9ECFF"/>
<path d="M33.2349 30.2961C33.1926 29.163 32.713 28.0884 32.0035 27.2133C31.2124 26.2378 30.1653 25.5277 29.025 25.0186C27.8073 24.4752 26.5048 24.1502 25.2085 23.8564C24.1412 23.615 23.0681 23.3993 21.9896 23.2154C21.8147 23.1421 21.639 23.0673 21.4624 22.998C21.3268 22.9445 21.1907 22.8942 21.0536 22.8499C20.9307 22.7936 20.8067 22.7398 20.6813 22.6903C20.6563 22.6803 20.6313 22.6703 20.606 22.6608C20.1521 22.4874 19.6255 22.3921 19.1837 22.652C19.1631 22.6643 19.1469 22.679 19.1349 22.6953C19.0818 22.7081 19.0293 22.7226 18.9772 22.7398C18.9495 22.7491 18.9292 22.7651 18.9152 22.7849C17.0265 22.5812 15.1243 22.4936 13.2266 22.5639C12.9191 22.4584 12.6056 22.3625 12.2816 22.333C12.2071 22.3263 12.134 22.324 12.0622 22.3258C11.7359 22.334 11.4337 22.4233 11.114 22.5237C11.0627 22.5399 11.0111 22.5557 10.9596 22.571C10.5083 22.7066 10.0507 22.8161 9.58855 22.9027C9.37814 22.935 9.16798 22.9695 8.95832 23.0065C8.88726 23.0165 8.81596 23.0266 8.7444 23.0356C8.72014 23.0386 8.69987 23.0461 8.68311 23.0563C7.20122 23.3328 5.74235 23.7298 4.34053 24.272C2.01174 25.1722 -0.295526 26.7199 -1.10239 29.206C-1.19421 29.4898 -1.26477 29.7782 -1.3098 30.073C-1.32356 30.1628 -1.26727 30.2163 -1.19922 30.2293C-1.28203 30.3021 -1.26027 30.4818 -1.11415 30.5063C1.12581 30.8831 3.38555 31.1648 5.64478 31.3965C7.91026 31.6286 10.1823 31.7955 12.4573 31.8971C14.7237 31.9984 16.9927 32.0365 19.2615 32.0087C21.5385 31.9809 23.8147 31.8878 26.0864 31.7292C27.2223 31.6499 28.3569 31.5543 29.4901 31.442C30.4993 31.3422 31.5231 31.2251 32.4826 30.8791C32.7273 30.791 32.965 30.6867 33.1956 30.5673C33.31 30.5083 33.3032 30.3622 33.2349 30.2961Z" fill="#B9853A"/>
<path d="M24.2806 12.2078C24.2803 12.6146 24.2325 13.0222 24.113 13.412C23.9015 14.1013 23.474 14.7333 22.8492 15.1105C22.6724 15.2171 22.3544 15.4095 22.1152 15.3675C22.0011 15.6702 21.8667 15.9649 21.7146 16.2484C21.3436 17.2399 20.8237 18.1769 20.1136 18.9647C20.0573 19.8091 20.0714 20.6638 20.1154 21.5084C20.1264 21.7171 20.1367 21.9265 20.1569 22.1344C20.1684 22.254 20.1864 22.3736 20.229 22.4844C20.4749 22.5578 20.7124 22.6568 20.937 22.7827C21.0599 22.8517 20.9903 23.0379 20.878 23.0631C20.9415 23.0937 21.0051 23.1224 21.0671 23.1507C21.247 23.2323 21.1154 23.5092 20.9355 23.4277C20.931 23.4254 20.9265 23.4234 20.922 23.4214C20.8467 23.9971 20.5054 24.5175 20.0218 24.832C19.93 24.9096 19.8334 24.9809 19.7326 25.0454C19.0831 25.4615 18.3048 25.5961 17.5442 25.5613C17.4058 25.5883 17.2675 25.6136 17.1301 25.6374C16.3207 25.7767 15.4821 25.855 14.6682 25.7054C14.2759 25.6331 13.8939 25.5115 13.5203 25.3734C13.1653 25.2423 12.8033 25.1072 12.475 24.9168C11.8811 24.5723 11.423 23.9678 11.3777 23.2655C11.3577 23.239 11.3477 23.2057 11.3544 23.167C11.4285 22.7539 11.717 22.4882 12.0535 22.2875C12.0862 22.0516 12.1023 21.8129 12.1018 21.5745C12.0995 20.8137 11.9274 20.0518 11.5899 19.3716C11.5896 19.3716 11.5896 19.3713 11.5896 19.3713C11.5849 19.3668 11.5799 19.3623 11.5751 19.3578C10.9279 18.7573 10.405 18.029 10.0224 17.2209C9.79824 16.7475 9.62435 16.2532 9.49876 15.7468C9.14674 15.7901 8.7722 15.5474 8.52426 15.3235C7.95532 14.8096 7.56652 14.0625 7.47796 13.3014C7.43042 12.8948 7.4702 12.4793 7.5963 12.09C7.70863 11.7427 7.88802 11.3789 8.22178 11.1978C8.53076 11.0299 8.91756 11.0199 9.2323 11.1803C9.34088 11.2358 9.43746 11.3069 9.52077 11.3904C9.63311 10.755 9.78172 10.12 10.0084 9.52026C10.2806 8.79996 10.7289 8.19024 11.415 7.81945C12.05 7.47644 12.7765 7.31106 13.4846 7.19973C14.2637 7.07739 15.0548 7.04611 15.8424 7.06938C16.6362 7.09265 17.4271 7.16795 18.2149 7.26453C18.61 7.31282 19.0043 7.36636 19.3986 7.42065C19.7714 7.47194 20.1462 7.51847 20.5039 7.64082C21.6969 8.04888 22.2418 9.32035 22.4867 10.4612C22.5488 10.7505 22.5985 11.0452 22.6331 11.3427C22.7427 11.1418 22.8998 10.9716 23.1167 10.8733C23.469 10.7137 23.897 10.8125 24.0942 11.1573C24.2708 11.4668 24.2806 11.8606 24.2806 12.2078Z" fill="#FFB79E"/>
<path d="M21.9942 7.85743C22.8091 7.17791 23.1679 6.06906 22.8929 5.02526C22.8934 5.00374 22.8939 4.98248 22.8941 4.96096C22.8949 4.89991 22.8296 4.82911 22.768 4.8246C21.1481 4.70476 19.5323 4.52938 17.9246 4.2972C17.1387 4.18386 16.3574 4.0315 15.5698 3.93042C14.8692 3.84035 14.1192 3.82134 13.4627 4.12031C13.0996 4.28569 12.7699 4.53563 12.5405 4.85463C12.1829 4.92668 11.8437 5.0833 11.5632 5.32299C11.2392 5.5997 11.0108 5.95697 10.8859 6.35353C9.74106 7.35655 9.17938 8.8627 9.12509 10.3681C9.10632 10.8853 9.14535 11.4021 9.22791 11.9128C9.25243 12.0639 9.44433 12.0992 9.51889 11.9641C9.85615 11.3529 10.017 10.6531 9.98574 9.95829C10.0485 9.46191 10.6225 9.21447 10.9377 8.87446C11.0928 8.70683 11.2159 8.51643 11.3065 8.31153C12.5027 7.79788 13.868 7.6858 15.1522 7.72057C16.6879 7.76186 18.2243 8.00554 19.7145 8.37232C20.3177 8.52069 20.9892 8.68306 21.4683 9.10188C21.5066 9.22148 21.5348 9.34507 21.5689 9.46466C21.6397 9.71385 21.7483 9.94778 21.8666 10.1777C22.0975 10.6266 22.3727 11.0784 22.3752 11.5988C22.3762 11.7794 22.6414 11.7712 22.6787 11.6111C22.8421 10.9118 22.7318 10.1957 22.5411 9.5137C22.3848 8.95477 22.1881 8.40585 21.9937 7.85793L21.9942 7.85743Z" fill="#371E30"/>
<path d="M21.4863 23.3824C21.4886 23.281 21.4843 23.1792 21.4728 23.0774C21.4698 23.0506 21.4663 23.0223 21.4623 22.9931C21.3267 22.9395 21.1906 22.8892 21.0535 22.845C20.9306 22.7887 20.8066 22.7349 20.6812 22.6853C20.8228 23.0153 20.8223 23.4079 20.7297 23.7491C20.6805 23.9313 20.6049 24.1032 20.5123 24.2663C20.422 24.3799 20.3192 24.4837 20.2093 24.575C19.8556 24.869 19.4295 25.0519 18.9944 25.1895C18.5363 25.3341 18.0657 25.4387 17.5908 25.5102C16.6354 25.6546 15.6601 25.6599 14.7034 25.523C14.225 25.4547 13.7494 25.3531 13.2868 25.2128C12.8647 25.0847 12.4426 24.9073 12.1001 24.6241C11.7571 24.3403 11.4819 23.938 11.4504 23.4834C11.4226 23.0836 11.6078 22.6268 11.98 22.4389C12.0336 22.4119 12.0583 22.3673 12.0621 22.3208C11.7359 22.3291 11.4336 22.4184 11.1139 22.5187C11.0626 22.535 11.011 22.5507 10.9595 22.566C10.5705 23.2105 10.624 24.0714 11.0428 24.7151C11.6593 25.6621 12.8102 26.0464 13.8805 26.1625C13.9175 26.1665 13.9546 26.17 13.9918 26.1735C14.1022 26.195 14.213 26.2128 14.3243 26.2265C14.6316 26.2743 14.9418 26.3034 15.2533 26.3136C16.1212 26.4049 16.9989 26.3999 17.8673 26.2968C18.9526 26.2623 20.091 26.0119 20.8656 25.1968C21.3204 24.7184 21.5601 24.0266 21.4863 23.3821V23.3824Z" fill="#F2D0A0"/>
<path d="M12.951 11.8238C12.632 11.6176 12.4944 12.1352 12.4156 12.3369C12.4136 12.3421 12.4141 12.3464 12.4159 12.3499C12.3631 12.5416 12.3568 12.745 12.4038 12.9411C12.4574 13.165 12.6173 13.4305 12.886 13.3154C13.1462 13.2038 13.2445 12.8373 13.251 12.5808C13.2575 12.3276 13.1797 11.9714 12.9508 11.8235L12.951 11.8238Z" fill="black"/>
<path d="M18.6859 11.8426C18.3669 11.6364 18.2293 12.154 18.1505 12.3557C18.1485 12.3609 18.149 12.3652 18.1507 12.3687C18.0979 12.5604 18.0917 12.7638 18.1387 12.9599C18.1922 13.1838 18.3521 13.4493 18.6208 13.3342C18.881 13.2226 18.9794 12.8561 18.9859 12.5996C18.9924 12.3464 18.9146 11.9902 18.6856 11.8423L18.6859 11.8426Z" fill="black"/>
<path d="M13.8867 11.5642C13.8692 11.5564 13.8514 11.5492 13.8339 11.5419C13.9082 11.4778 13.9277 11.3505 13.8149 11.2962C12.9302 10.8699 11.8854 11.0025 11.1108 11.5927C10.9532 11.7128 11.1401 11.9652 11.2917 11.8401C11.9417 11.303 12.9095 11.1996 13.665 11.5639C13.7256 11.5929 13.7829 11.5812 13.8249 11.5494C13.8457 11.5539 13.8662 11.5589 13.8865 11.5647L13.8867 11.5642Z" fill="black"/>
<path d="M20.2483 11.6369C19.53 11.1145 18.6295 10.9701 17.7759 11.19C17.5845 11.2393 17.6563 11.545 17.8449 11.4887C18.5925 11.2651 19.4324 11.4227 20.0606 11.8795C20.2203 11.9956 20.4079 11.7532 20.248 11.6371L20.2483 11.6369Z" fill="black"/>
<path d="M20.2954 16.0745C20.2499 15.8881 20.104 15.7487 19.9469 15.6491C19.7042 15.4953 19.4135 15.4082 19.1378 15.3361C18.7968 15.2471 18.4472 15.199 18.0952 15.187C18.0865 15.1868 18.0805 15.1915 18.0774 15.1978C17.8012 15.203 17.5528 15.4074 17.541 15.7079C17.5268 16.0699 17.8328 16.2291 18.129 16.3344C18.3311 16.4602 18.5738 16.5451 18.7727 16.6274C19.1848 16.7975 19.7452 16.9716 20.1165 16.6164C20.2614 16.4778 20.3442 16.2736 20.2954 16.0745Z" fill="#FBA294"/>
<path d="M13.8373 15.8441C13.8032 15.3392 13.1968 15.2671 12.804 15.2904C12.229 15.3247 11.6708 15.5106 11.1865 15.8186C11.1147 15.8466 11.0499 15.8911 10.9973 15.9479C10.9841 15.9577 10.9708 15.9669 10.9575 15.9767C10.9483 15.9837 10.9493 15.9937 10.9545 16.0007C10.9255 16.042 10.9025 16.088 10.887 16.1373C10.8244 16.339 10.9195 16.5424 11.0734 16.674C11.2778 16.8489 11.5578 16.8834 11.8167 16.8914C12.1425 16.9016 12.4695 16.8651 12.7849 16.7841C13.2338 16.6687 13.8755 16.4143 13.837 15.8438L13.8373 15.8441Z" fill="#FBA294"/>
<path d="M22.6059 11.5875C22.6032 11.5477 22.5801 11.5089 22.5311 11.4966C22.1245 11.3953 21.7035 11.3608 21.2862 11.3993C21.2754 11.4003 21.2661 11.4031 21.2579 11.4063C21.2026 11.3398 21.1383 11.2777 21.0642 11.2207C20.7175 10.9535 20.2716 10.8146 19.8465 10.7343C18.8118 10.5389 17.7154 10.7516 16.8295 11.32C16.797 11.3408 16.7852 11.3703 16.7875 11.3991C16.7734 11.4091 16.7622 11.4243 16.7557 11.4459C16.6974 11.6433 16.6549 11.8442 16.6298 12.0466C16.1129 11.8899 15.5578 11.8814 15.0376 12.0273C15.0341 11.9943 15.0301 11.961 15.0259 11.928C14.9968 11.7021 14.9428 11.4681 14.8014 11.2837C14.518 10.9137 13.9971 10.7906 13.561 10.7145C12.4832 10.5267 11.3228 10.7448 10.3988 11.3363C10.384 11.327 10.3663 11.321 10.3455 11.3208C10.3373 11.3208 10.329 11.3208 10.3207 11.3208C10.2965 11.311 10.2702 11.3105 10.2484 11.322C9.92769 11.332 9.61621 11.4056 9.32123 11.5354C9.26369 11.5607 9.25618 11.618 9.2777 11.6623C9.26894 11.7231 9.31122 11.7916 9.38703 11.7726C9.63122 11.7111 9.87916 11.6665 10.1291 11.6348C9.88766 12.5234 9.94146 13.5154 10.5995 14.2202C10.9455 14.5908 11.4088 14.7734 11.9062 14.8297C12.3838 14.8837 12.8915 14.8812 13.3648 14.7937C13.8117 14.7109 14.2455 14.5307 14.5535 14.1857C14.8938 13.8042 15.0371 13.2885 15.0626 12.7874C15.0704 12.6365 15.0696 12.4847 15.0621 12.333C15.0704 12.332 15.0789 12.3305 15.0876 12.3273C15.579 12.1456 16.1157 12.1511 16.6001 12.3533C16.6018 12.3541 16.6036 12.3543 16.6053 12.3548C16.5978 12.5762 16.6118 12.7986 16.6503 13.0198C16.7322 13.4882 16.902 13.942 17.3139 14.214C17.7192 14.4817 18.2421 14.5885 18.7174 14.6423C19.2116 14.6981 19.7477 14.6996 20.2273 14.5537C20.6589 14.4226 20.9687 14.1199 21.1558 13.7148C21.2436 13.5247 21.3057 13.323 21.3602 13.1211C21.4233 12.887 21.4868 12.6493 21.5168 12.4083C21.5481 12.1577 21.5248 11.9182 21.438 11.7048C21.8068 11.7058 22.1743 11.7263 22.5409 11.7686C22.6519 11.7814 22.6907 11.6282 22.6064 11.5872L22.6059 11.5875ZM14.6123 13.7664C14.3994 14.1572 14.0386 14.4084 13.6183 14.5352C13.2115 14.6581 12.7766 14.6738 12.3546 14.6648C11.8814 14.6546 11.3826 14.5948 10.9895 14.3085C10.1153 13.6723 10.0543 12.4959 10.356 11.5419C10.3803 11.5554 10.4091 11.5579 10.4373 11.5402C11.2152 11.0511 12.1159 10.7954 13.0378 10.8491C13.4707 10.8744 13.9448 10.9472 14.3338 11.1489C14.5317 11.2515 14.6848 11.4043 14.7604 11.6167C14.8405 11.8414 14.853 12.0919 14.8665 12.328C14.8948 12.8194 14.8517 13.327 14.6123 13.7664ZM21.1093 13.2935C20.9907 13.6688 20.8075 14.0441 20.4543 14.2483C20.0715 14.4694 19.5758 14.4887 19.1448 14.4789C18.6724 14.4682 18.1773 14.3911 17.7369 14.2152C17.5193 14.1282 17.3094 14.0071 17.1612 13.8214C17.0049 13.6253 16.9226 13.3783 16.8693 13.1362C16.7522 12.6052 16.7694 12.0326 16.9373 11.5139C16.9413 11.5014 16.9426 11.4894 16.9421 11.4781C17.6526 11.0228 18.51 10.8066 19.3522 10.8662C19.7602 10.8949 20.1728 10.9817 20.5488 11.1456C20.9341 11.3138 21.2839 11.591 21.3322 12.0356C21.377 12.4484 21.2329 12.903 21.1095 13.2935H21.1093Z" fill="#402137"/>
<path d="M15.7721 15.5713C15.5292 15.6616 15.2352 15.6889 14.99 15.5881C14.8757 15.541 14.7731 15.45 14.8167 15.3151C14.8542 15.1988 14.961 15.1064 15.0413 15.0189C15.3758 14.6541 15.5907 14.1922 15.6635 13.7036C15.6821 13.5798 15.4897 13.564 15.4704 13.6866C15.4229 13.9878 15.3215 14.2761 15.1629 14.5373C15.0819 14.6709 14.9855 14.7937 14.8797 14.9085C14.7856 15.0106 14.6825 15.1145 14.636 15.2486C14.5484 15.5013 14.7256 15.7027 14.9563 15.7812C15.2422 15.8785 15.559 15.8575 15.8394 15.7532C15.9563 15.7097 15.8895 15.5278 15.7721 15.5713Z" fill="#E69487"/>
<path d="M17.3378 17.5471C16.8704 17.9537 16.2662 18.1831 15.645 18.1703C15.0235 18.1578 14.4343 17.8951 13.9847 17.4718C13.8954 17.3877 13.7463 17.5083 13.8361 17.5964C14.3127 18.063 14.9552 18.341 15.6225 18.3622C16.2867 18.3835 16.9485 18.1411 17.4489 17.7057C17.5422 17.6247 17.4319 17.465 17.3376 17.5469L17.3378 17.5471Z" fill="#E69487"/>
<path d="M16.584 18.5962C16.27 18.7354 15.9418 18.7674 15.6053 18.7046C15.4817 18.6816 15.4687 18.8722 15.5883 18.8977C15.944 18.9733 16.3201 18.9245 16.6511 18.7781C16.7647 18.7278 16.6984 18.5455 16.5838 18.5962H16.584Z" fill="#E69487"/>
<path d="M19.8605 19.1145C19.8592 19.1157 19.8582 19.1172 19.857 19.1187C19.8562 19.1187 19.8552 19.119 19.8545 19.12C19.8522 19.1237 19.8497 19.1275 19.8475 19.1312C19.7997 19.1935 19.7469 19.2518 19.6886 19.3044C19.6859 19.3061 19.6828 19.3084 19.6803 19.3111C18.9022 20.1758 17.8234 20.734 16.6813 20.9301C15.5071 21.1318 14.295 20.9329 13.2179 20.4345C12.6392 20.1665 12.103 19.8158 11.6212 19.3987C11.6207 19.3982 11.6204 19.3977 11.6199 19.3972C11.6049 19.3842 11.5901 19.3709 11.5751 19.3579C11.5799 19.3624 11.5849 19.3669 11.5896 19.3714C11.5896 19.3714 11.5896 19.3717 11.5899 19.3717C11.9274 20.052 12.0995 20.8138 12.1018 21.5746C12.6202 21.8051 13.1661 21.9744 13.7248 22.074C14.3468 22.1846 14.985 22.2089 15.6125 22.1316C16.1812 22.0615 16.7378 21.9064 17.258 21.6657C17.7501 21.4383 18.2087 21.1375 18.61 20.7728C18.8349 20.5684 19.0409 20.3432 19.2242 20.101C19.4061 19.8883 19.5683 19.6579 19.7034 19.413C19.7146 19.396 19.7259 19.3787 19.7364 19.3609C19.7369 19.3609 19.7371 19.3602 19.7376 19.3599C19.7414 19.3557 19.7436 19.3512 19.7449 19.3469C19.7489 19.3402 19.7532 19.3339 19.7567 19.3272C19.7844 19.2784 19.8082 19.2273 19.8277 19.1748C19.83 19.1708 19.8322 19.1668 19.8345 19.1628C19.8405 19.1535 19.8465 19.1443 19.8525 19.1348C19.8567 19.1292 19.861 19.124 19.8652 19.1185C19.8675 19.1152 19.8627 19.1112 19.8605 19.1145Z" fill="#371E30"/>
<path d="M8.88827 12.6529C8.63908 12.6381 8.44793 12.8318 8.38963 13.064C8.31032 13.3794 8.50472 13.6867 8.66835 13.9394C8.70563 13.9969 8.79269 13.9359 8.75542 13.8783C8.62507 13.6772 8.4752 13.4515 8.4782 13.2018C8.4807 12.9859 8.64158 12.7405 8.87926 12.7585C8.94756 12.7637 8.95682 12.6566 8.88852 12.6526L8.88827 12.6529Z" fill="#E69487"/>
<path d="M23.0087 12.3928C22.9407 12.3918 22.9309 12.4982 22.9995 12.4987C23.408 12.5017 23.3422 13.0681 23.2407 13.3215C23.1371 13.58 22.9434 13.7886 22.6985 13.9185C22.6382 13.9505 22.6997 14.0373 22.7595 14.0056C23.0795 13.8362 23.3152 13.5307 23.397 13.1774C23.4671 12.8749 23.4108 12.3983 23.009 12.3926L23.0087 12.3928Z" fill="#E69487"/>
</g>
<defs>
<clipPath id="clip0_319_15521">
<rect width="32" height="32" rx="16" fill="white"/>
</clipPath>
</defs>
</svg>
