<svg width="22" height="20" viewBox="0 0 22 20" fill="none" xmlns="http://www.w3.org/2000/svg">
<g id="elements">
<path id="Vector" d="M1 17C1 17 2 17 3 19C3 19 6.17647 14 9 13" stroke="#AE46EE" stroke-width="1.5" stroke-linecap="round" stroke-linejoin="round"/>
<path id="Vector_2" d="M9.5 19H15C17.8284 19 19.2426 19 20.1213 18.1213C21 17.2426 21 15.8284 21 13V11C21 8.17157 21 6.75736 20.1213 5.87868C19.2426 5 17.8284 5 15 5H9M1 13V9C1 5.22876 1 3.34315 2.17157 2.17157C3.34315 1 5.22876 1 9 1H13C13.93 1 14.395 1 14.7765 1.10222C15.8117 1.37962 16.6204 2.18827 16.8978 3.22354C17 3.60504 17 4.07003 17 5" stroke="#AE46EE" stroke-width="1.5" stroke-linecap="round"/>
<path id="Vector_3" d="M14.9999 11.5C14.9999 12.3284 15.6715 13 16.4999 13C17.3284 13 17.9999 12.3284 17.9999 11.5C17.9999 10.6716 17.3284 10 16.4999 10C15.6715 10 14.9999 10.6716 14.9999 11.5Z" stroke="#AE46EE" stroke-width="1.5"/>
</g>
</svg>
