<svg width="12" height="8" viewBox="0 0 12 8" fill="none" xmlns="http://www.w3.org/2000/svg">
<g id="elements">
<path id="Vector" d="M11.2652 1.26516C11.4116 1.11872 11.4116 0.881281 11.2652 0.734835C11.1187 0.588388 10.8813 0.588388 10.7348 0.734835L11.2652 1.26516ZM7.30109 3.44087L7.53535 3.14805H7.53535L7.30109 3.44087ZM6.24136 2.59309L6.47562 2.30026L6.24136 2.59309ZM4.86925 2.70959L5.14953 2.95873L4.86925 2.70959ZM1.21972 6.25086C1.08213 6.40566 1.09607 6.64268 1.25086 6.78028C1.40566 6.91787 1.64268 6.90393 1.78028 6.74914L1.21972 6.25086ZM5.51603 2.18877L5.4843 1.81511H5.4843L5.51603 2.18877ZM7.99054 3.82924L7.9698 3.45481H7.9698L7.99054 3.82924ZM3 7.375C3.20711 7.375 3.375 7.20711 3.375 7C3.375 6.79289 3.20711 6.625 3 6.625V7.375ZM1.375 5C1.375 4.79289 1.20711 4.625 1 4.625C0.792893 4.625 0.625 4.79289 0.625 5H1.375ZM1.14645 6.85355L0.881281 7.11872V7.11872L1.14645 6.85355ZM9.5 6.375C9.70711 6.375 9.875 6.20711 9.875 6C9.875 5.79289 9.70711 5.625 9.5 5.625V6.375ZM6.5 5.625C6.29289 5.625 6.125 5.79289 6.125 6C6.125 6.20711 6.29289 6.375 6.5 6.375V5.625ZM10.7348 0.734835L8.36773 3.10194L8.89806 3.63227L11.2652 1.26516L10.7348 0.734835ZM7.53535 3.14805L6.47562 2.30026L6.0071 2.88591L7.06683 3.7337L7.53535 3.14805ZM4.58897 2.46045L1.21972 6.25086L1.78028 6.74914L5.14953 2.95873L4.58897 2.46045ZM6.47562 2.30026C6.30817 2.1663 6.1543 2.04223 6.01567 1.9584C5.86778 1.86898 5.69356 1.79735 5.4843 1.81511L5.54775 2.56243C5.54806 2.5624 5.54809 2.56241 5.54791 2.56241C5.54774 2.56241 5.54766 2.56239 5.54775 2.5624C5.54777 2.56241 5.54989 2.56262 5.55477 2.56411C5.56557 2.56739 5.58804 2.57627 5.62759 2.60019C5.71417 2.65255 5.82355 2.73907 6.0071 2.88591L6.47562 2.30026ZM5.14953 2.95873C5.30569 2.78304 5.39892 2.67931 5.47543 2.61311C5.51039 2.58287 5.53103 2.57033 5.54113 2.56527C5.54569 2.56298 5.54773 2.56241 5.54776 2.5624C5.54785 2.56238 5.54777 2.5624 5.5476 2.56243C5.54743 2.56247 5.54745 2.56245 5.54776 2.56243L5.4843 1.81511C5.27504 1.83288 5.11539 1.93286 4.9847 2.04594C4.86219 2.15194 4.73144 2.30018 4.58897 2.46045L5.14953 2.95873ZM8.36773 3.10194C8.21016 3.25951 8.11676 3.35189 8.04109 3.41036C8.00662 3.437 7.98652 3.44789 7.97667 3.45227C7.9722 3.45426 7.97014 3.45476 7.97001 3.45479C7.96997 3.4548 7.97013 3.45479 7.9698 3.45481L8.01128 4.20366C8.21156 4.19257 8.36868 4.10505 8.49966 4.00384C8.6222 3.90915 8.75458 3.77575 8.89806 3.63227L8.36773 3.10194ZM7.06683 3.7337C7.22527 3.86045 7.37157 3.97842 7.50382 4.05899C7.64518 4.14512 7.811 4.21476 8.01128 4.20366L7.9698 3.45481C7.96948 3.45483 7.96964 3.45482 7.9696 3.45482C7.96946 3.4548 7.96737 3.45452 7.9627 3.45304C7.95243 3.44977 7.93125 3.44117 7.89405 3.41851C7.81238 3.36875 7.70935 3.28724 7.53535 3.14805L7.06683 3.7337ZM3 6.625H2V7.375H3V6.625ZM1.375 6V5H0.625V6H1.375ZM2 6.625C1.7537 6.625 1.60669 6.6242 1.50133 6.61004C1.45305 6.60355 1.42887 6.5959 1.41798 6.59142C1.41546 6.59038 1.4138 6.58957 1.41284 6.58907C1.41188 6.58857 1.41146 6.58829 1.41142 6.58827C1.41138 6.58824 1.4115 6.58832 1.41167 6.58846C1.41185 6.5886 1.41184 6.58862 1.41161 6.58839L0.881281 7.11872C1.03579 7.27323 1.22366 7.32945 1.4014 7.35335C1.56835 7.3758 1.7749 7.375 2 7.375V6.625ZM0.625 6C0.625 6.2251 0.624204 6.43165 0.646649 6.5986C0.670546 6.77634 0.726769 6.96421 0.881281 7.11872L1.41161 6.58839C1.41138 6.58816 1.4114 6.58815 1.41154 6.58832C1.41168 6.5885 1.41175 6.58862 1.41173 6.58858C1.41171 6.58854 1.41143 6.58812 1.41093 6.58716C1.41043 6.5862 1.40962 6.58454 1.40858 6.58202C1.4041 6.57113 1.39645 6.54695 1.38996 6.49867C1.3758 6.39331 1.375 6.2463 1.375 6H0.625ZM9.5 5.625H6.5V6.375H9.5V5.625Z" fill="#D92D20"/>
</g>
</svg>
