<svg width="22" height="22" viewBox="0 0 22 22" fill="none" xmlns="http://www.w3.org/2000/svg">
<g id="elements">
<path id="Vector" d="M11.002 8C9.89738 8 9.00195 8.67157 9.00195 9.5C9.00195 10.3284 9.89738 11 11.002 11C12.1065 11 13.002 11.6716 13.002 12.5C13.002 13.3284 12.1065 14 11.002 14M11.002 8C11.8728 8 12.6136 8.4174 12.8881 9M11.002 8V7M11.002 14C10.1311 14 9.39031 13.5826 9.11576 13M11.002 14V15" stroke="#6DACF9" stroke-width="1.5" stroke-linecap="round"/>
<path id="Vector_2" d="M12 1.5C12 1.5 11.6839 1.5 11 1.5C6.52166 1.5 4.28249 1.5 2.89124 2.89125C1.5 4.28249 1.5 6.52166 1.5 11C1.5 15.4783 1.5 17.7175 2.89124 19.1088C4.28249 20.5 6.52166 20.5 11 20.5C15.4783 20.5 17.7175 20.5 19.1088 19.1088C20.5 17.7175 20.5 15.4783 20.5 11C20.5 10.3161 20.5 10 20.5 10" stroke="#6DACF9" stroke-width="1.5" stroke-linecap="round"/>
<path id="Vector_3" d="M15.4301 5.46725C15.1359 5.75878 15.1337 6.23365 15.4252 6.5279C15.7168 6.82215 16.1916 6.82435 16.4859 6.53282L15.4301 5.46725ZM21.0279 2.03278C21.3221 1.74125 21.3243 1.26639 21.0328 0.972136C20.7413 0.677887 20.2664 0.675684 19.9721 0.967215L21.0279 2.03278ZM16.4717 6.27298L16.6025 5.53447L16.4717 6.27298ZM15.7272 5.52829L14.9887 5.65895V5.65895L15.7272 5.52829ZM19.9899 7.24578C20.4041 7.25145 20.7444 6.92029 20.7501 6.50611C20.7558 6.09194 20.4246 5.75159 20.0104 5.74592L19.9899 7.24578ZM16.2543 1.98972C16.2486 1.57555 15.9082 1.24441 15.4941 1.25011C15.0799 1.25581 14.7488 1.59618 14.7545 2.01035L16.2543 1.98972ZM16.4859 6.53282L21.0279 2.03278L19.9721 0.967215L15.4301 5.46725L16.4859 6.53282ZM16.6025 5.53447C16.552 5.52553 16.5245 5.50662 16.5091 5.49117C16.4936 5.47572 16.4747 5.44822 16.4657 5.39763L14.9887 5.65895C15.1128 6.36032 15.6393 6.88724 16.3409 7.01148L16.6025 5.53447ZM16.3409 7.01148C17.3556 7.19119 19.1531 7.23433 19.9899 7.24578L20.0104 5.74592C19.1429 5.73405 17.4745 5.6889 16.6025 5.53447L16.3409 7.01148ZM14.7545 2.01035C14.766 2.84717 14.8092 4.64439 14.9887 5.65895L16.4657 5.39763C16.3115 4.52556 16.2662 2.8572 16.2543 1.98972L14.7545 2.01035Z" fill="#6DACF9"/>
</g>
</svg>
