<svg width="12" height="8" viewBox="0 0 12 8" fill="none" xmlns="http://www.w3.org/2000/svg">
<g id="elements">
<path id="Vector" d="M0.734835 6.73484C0.588388 6.88128 0.588388 7.11872 0.734835 7.26516C0.881282 7.41161 1.11872 7.41161 1.26517 7.26516L0.734835 6.73484ZM4.69891 4.55913L4.46465 4.85195H4.46465L4.69891 4.55913ZM5.75864 5.40691L5.52438 5.69974L5.75864 5.40691ZM7.13075 5.29041L6.85047 5.04127L7.13075 5.29041ZM10.7803 1.74914C10.9179 1.59434 10.9039 1.35732 10.7491 1.21972C10.5943 1.08213 10.3573 1.09607 10.2197 1.25086L10.7803 1.74914ZM6.48397 5.81123L6.5157 6.18489H6.5157L6.48397 5.81123ZM4.00946 4.17076L4.0302 4.54519H4.0302L4.00946 4.17076ZM9 0.625C8.79289 0.625 8.625 0.792893 8.625 1C8.625 1.20711 8.79289 1.375 9 1.375V0.625ZM10.625 3C10.625 3.20711 10.7929 3.375 11 3.375C11.2071 3.375 11.375 3.20711 11.375 3H10.625ZM10.8536 1.14645L11.1187 0.881282V0.881281L10.8536 1.14645ZM2.5 1.625C2.29289 1.625 2.125 1.79289 2.125 2C2.125 2.20711 2.29289 2.375 2.5 2.375V1.625ZM5.5 2.375C5.70711 2.375 5.875 2.20711 5.875 2C5.875 1.79289 5.70711 1.625 5.5 1.625V2.375ZM1.26517 7.26516L3.63227 4.89806L3.10194 4.36773L0.734835 6.73484L1.26517 7.26516ZM4.46465 4.85195L5.52438 5.69974L5.9929 5.11409L4.93317 4.2663L4.46465 4.85195ZM7.41103 5.53955L10.7803 1.74914L10.2197 1.25086L6.85047 5.04127L7.41103 5.53955ZM5.52438 5.69974C5.69183 5.8337 5.8457 5.95777 5.98433 6.0416C6.13222 6.13102 6.30644 6.20265 6.5157 6.18489L6.45225 5.43757C6.45194 5.4376 6.45191 5.43759 6.45209 5.43759C6.45226 5.43759 6.45234 5.43761 6.45225 5.4376C6.45223 5.43759 6.45011 5.43738 6.44523 5.43589C6.43443 5.43261 6.41196 5.42373 6.37241 5.39981C6.28583 5.34745 6.17645 5.26093 5.9929 5.11409L5.52438 5.69974ZM6.85047 5.04127C6.69431 5.21696 6.60108 5.32069 6.52457 5.38689C6.48961 5.41713 6.46897 5.42967 6.45887 5.43473C6.45431 5.43702 6.45227 5.43759 6.45224 5.4376C6.45215 5.43762 6.45223 5.4376 6.4524 5.43757C6.45257 5.43753 6.45255 5.43755 6.45224 5.43757L6.5157 6.18489C6.72496 6.16712 6.88461 6.06714 7.0153 5.95406C7.13781 5.84806 7.26856 5.69982 7.41103 5.53955L6.85047 5.04127ZM3.63227 4.89806C3.78984 4.74049 3.88324 4.64811 3.95891 4.58964C3.99338 4.563 4.01348 4.55211 4.02333 4.54773C4.0278 4.54574 4.02986 4.54524 4.02999 4.54521C4.03003 4.5452 4.02987 4.54521 4.0302 4.54519L3.98872 3.79634C3.78844 3.80743 3.63132 3.89495 3.50034 3.99616C3.3778 4.09085 3.24542 4.22425 3.10194 4.36773L3.63227 4.89806ZM4.93317 4.2663C4.77473 4.13955 4.62843 4.02158 4.49618 3.94101C4.35482 3.85488 4.189 3.78524 3.98872 3.79634L4.0302 4.54519C4.03052 4.54517 4.03036 4.54518 4.0304 4.54518C4.03054 4.5452 4.03263 4.54548 4.0373 4.54696C4.04757 4.55023 4.06875 4.55883 4.10595 4.58149C4.18762 4.63125 4.29065 4.71276 4.46465 4.85195L4.93317 4.2663ZM9 1.375H10V0.625H9V1.375ZM10.625 2V3H11.375V2H10.625ZM10 1.375C10.2463 1.375 10.3933 1.3758 10.4987 1.38996C10.5469 1.39645 10.5711 1.4041 10.582 1.40858C10.5845 1.40962 10.5862 1.41043 10.5872 1.41093C10.5881 1.41143 10.5885 1.41171 10.5886 1.41173C10.5886 1.41176 10.5885 1.41168 10.5883 1.41154C10.5882 1.4114 10.5882 1.41138 10.5884 1.41161L11.1187 0.881281C10.9642 0.72677 10.7763 0.670546 10.5986 0.64665C10.4317 0.624204 10.2251 0.625 10 0.625V1.375ZM11.375 2C11.375 1.7749 11.3758 1.56835 11.3534 1.4014C11.3295 1.22366 11.2732 1.03579 11.1187 0.881282L10.5884 1.41161C10.5886 1.41184 10.5886 1.41185 10.5885 1.41168C10.5883 1.4115 10.5882 1.41138 10.5883 1.41142C10.5883 1.41146 10.5886 1.41188 10.5891 1.41284C10.5896 1.4138 10.5904 1.41546 10.5914 1.41798C10.5959 1.42887 10.6035 1.45305 10.61 1.50133C10.6242 1.60669 10.625 1.7537 10.625 2H11.375ZM2.5 2.375H5.5V1.625H2.5V2.375Z" fill="#12B76A"/>
</g>
</svg>
