<svg width="157" height="32" viewBox="0 0 157 32" fill="none" xmlns="http://www.w3.org/2000/svg">
<g clip-path="url(#clip0_166_911)">
<path d="M26.346 7.61798C27.1522 6.8099 27.6501 5.69546 27.6501 4.46436C27.6501 1.99837 25.6508 -0.000976562 23.1848 -0.000976562C21.6255 -0.000976562 20.255 0.799521 19.4564 2.00975C19.244 2.22221 1.46986 24.1297 1.30388 24.381C0.497696 25.1891 -0.000244141 26.3035 -0.000244141 27.5337C-0.000244141 29.9997 1.9991 31.999 4.46509 31.999C6.02436 31.999 7.39488 31.1985 8.19348 29.9883C8.40593 29.7758 26.18 7.86837 26.346 7.61703V7.61798Z" fill="#0085F9"/>
<path d="M36.631 18.0131C37.4391 17.205 37.9379 16.0887 37.9379 14.8566C37.9379 12.3906 35.9386 10.3913 33.4726 10.3913C31.9133 10.3913 30.5419 11.1918 29.7433 12.4039C29.5289 12.6183 20.1942 24.125 20.0263 24.3791C19.2182 25.1872 18.7194 26.3036 18.7194 27.5356C18.7194 30.0016 20.7187 32.0009 23.1847 32.0009C24.744 32.0009 26.1154 31.2004 26.914 29.9883C27.1284 29.774 36.4631 18.2673 36.631 18.0131Z" fill="#0085F9"/>
<path d="M46.2512 5.48312C46.8139 3.08204 45.3237 0.679406 42.9226 0.11668C40.5215 -0.446045 38.1189 1.04424 37.5561 3.44531C36.9934 5.84639 38.4837 8.24903 40.8848 8.81175C43.2858 9.37448 45.6885 7.8842 46.2512 5.48312Z" fill="#0085F9"/>
<path d="M6.1143 8.61525C8.40631 7.70501 9.52645 5.10907 8.6162 2.81707C7.70595 0.525061 5.11001 -0.595075 2.81801 0.315171C0.526006 1.22542 -0.594131 3.82135 0.316116 6.11336C1.22636 8.40536 3.8223 9.5255 6.1143 8.61525Z" fill="#0085F9"/>
</g>
<path d="M56.4668 24.5C56.1465 24.5 55.8691 24.3867 55.6348 24.1602C55.4082 23.9258 55.2949 23.6484 55.2949 23.3281L55.2598 8.78516C55.252 8.71484 55.248 8.64453 55.248 8.57422C55.248 8.46484 55.2715 8.35938 55.3184 8.25781C55.373 8.15625 55.4355 8.05078 55.5059 7.94141C55.6934 7.63672 55.9629 7.48438 56.3145 7.48438C56.877 7.48438 57.2637 7.70313 57.4746 8.14062L63.7441 18.3711L69.5449 8.12891C69.7793 7.73828 70.0957 7.54297 70.4941 7.54297C70.8301 7.54297 71.123 7.65234 71.373 7.87109C71.623 8.08984 71.748 8.37109 71.748 8.71484V23.375C71.748 23.6953 71.6309 23.9727 71.3965 24.207C71.1699 24.4336 70.8965 24.5469 70.5762 24.5469C70.2559 24.5469 69.9785 24.4336 69.7441 24.207C69.5176 23.9727 69.4043 23.6953 69.4043 23.375V12.8984L64.7988 21.2656C64.7129 21.4062 64.5801 21.543 64.4004 21.6758C64.2207 21.8008 64.0254 21.8633 63.8145 21.8633C63.3613 21.8633 63.0137 21.6758 62.7715 21.3008L57.6035 12.8516L57.6387 23.3164V23.3281C57.6387 23.6484 57.5215 23.9258 57.2871 24.1602C57.0605 24.3867 56.7871 24.5 56.4668 24.5ZM81.1277 11.6094C81.7059 11.6094 82.2684 11.7266 82.8152 11.9609C83.3699 12.1875 83.8621 12.4766 84.2918 12.8281C84.7293 13.1719 85.0535 13.5273 85.2645 13.8945L85.3934 12.7695C85.3934 12.4492 85.4871 12.1758 85.6746 11.9492C85.8621 11.7148 86.116 11.5977 86.4363 11.5977C86.7566 11.5977 87.0301 11.7148 87.2566 11.9492C87.491 12.1758 87.6082 12.4492 87.6082 12.7695V12.793L87.5848 23.6445C87.5848 23.9648 87.4676 24.2422 87.2332 24.4766C87.0066 24.7031 86.7332 24.8164 86.4129 24.8164C86.0926 24.8164 85.8387 24.7031 85.6512 24.4766C85.4637 24.2422 85.3699 23.9648 85.3699 23.6445L85.241 22.707C84.8348 23.4023 84.241 23.9219 83.4598 24.2656C82.6785 24.6016 81.8934 24.7695 81.1043 24.7695C80.2215 24.7695 79.3934 24.5977 78.6199 24.2539C77.8465 23.9023 77.1668 23.4219 76.5809 22.8125C75.9949 22.2031 75.534 21.5039 75.198 20.7148C74.8699 19.9258 74.7059 19.0938 74.7059 18.2188C74.7059 17.3516 74.866 16.5234 75.1863 15.7344C75.5145 14.9375 75.9676 14.2305 76.5457 13.6133C77.1316 12.9883 77.8113 12.5 78.5848 12.1484C79.366 11.7891 80.2137 11.6094 81.1277 11.6094ZM85.1707 18.1953C85.1707 17.4297 84.991 16.7266 84.6316 16.0859C84.2801 15.4453 83.7996 14.9297 83.1902 14.5391C82.5809 14.1484 81.8855 13.9531 81.1043 13.9531C80.3387 13.9531 79.6473 14.1484 79.0301 14.5391C78.4129 14.9297 77.9246 15.4492 77.5652 16.0977C77.2059 16.7383 77.0262 17.4336 77.0262 18.1836C77.0262 18.9414 77.2098 19.6445 77.577 20.293C77.9441 20.9336 78.4363 21.4492 79.0535 21.8398C79.6785 22.2305 80.366 22.4258 81.116 22.4258C81.866 22.4258 82.5457 22.2305 83.1551 21.8398C83.7723 21.4492 84.2605 20.9336 84.6199 20.293C84.9871 19.6445 85.1707 18.9453 85.1707 18.1953ZM91.0934 8.58594C91.0934 8.26562 91.2066 7.99219 91.4332 7.76562C91.6676 7.53125 91.9449 7.41406 92.2652 7.41406C92.5855 7.41406 92.859 7.53125 93.0855 7.76562C93.3199 7.99219 93.4371 8.26562 93.4371 8.58594V16.9648L98.1832 12.0312C98.402 11.7812 98.6871 11.6562 99.0387 11.6562C99.359 11.6562 99.6324 11.7734 99.859 12.0078C100.093 12.2344 100.211 12.5078 100.211 12.8281C100.211 13.1562 100.097 13.4336 99.8707 13.6602L96.0738 17.6094L100.07 22.8594C100.234 23.0625 100.316 23.3047 100.316 23.5859C100.316 23.9062 100.199 24.1836 99.9645 24.418C99.7379 24.6445 99.4645 24.7578 99.1441 24.7578C98.9801 24.7578 98.8082 24.707 98.6285 24.6055C98.4488 24.5117 98.3082 24.4023 98.2066 24.2773L94.4332 19.3086L93.4371 20.3398V23.5508C93.4371 23.8711 93.3199 24.1484 93.0855 24.3828C92.859 24.6094 92.5855 24.7227 92.2652 24.7227C91.9449 24.7227 91.6676 24.6094 91.4332 24.3828C91.2066 24.1484 91.0934 23.8711 91.0934 23.5508V8.58594ZM109.403 11.6094C109.981 11.6094 110.543 11.7266 111.09 11.9609C111.645 12.1875 112.137 12.4766 112.567 12.8281C113.004 13.1719 113.329 13.5273 113.539 13.8945L113.668 12.7695C113.668 12.4492 113.762 12.1758 113.95 11.9492C114.137 11.7148 114.391 11.5977 114.711 11.5977C115.032 11.5977 115.305 11.7148 115.532 11.9492C115.766 12.1758 115.883 12.4492 115.883 12.7695V12.793L115.86 23.6445C115.86 23.9648 115.743 24.2422 115.508 24.4766C115.282 24.7031 115.008 24.8164 114.688 24.8164C114.368 24.8164 114.114 24.7031 113.926 24.4766C113.739 24.2422 113.645 23.9648 113.645 23.6445L113.516 22.707C113.11 23.4023 112.516 23.9219 111.735 24.2656C110.954 24.6016 110.168 24.7695 109.379 24.7695C108.496 24.7695 107.668 24.5977 106.895 24.2539C106.121 23.9023 105.442 23.4219 104.856 22.8125C104.27 22.2031 103.809 21.5039 103.473 20.7148C103.145 19.9258 102.981 19.0938 102.981 18.2188C102.981 17.3516 103.141 16.5234 103.461 15.7344C103.789 14.9375 104.243 14.2305 104.821 13.6133C105.407 12.9883 106.086 12.5 106.86 12.1484C107.641 11.7891 108.489 11.6094 109.403 11.6094ZM113.446 18.1953C113.446 17.4297 113.266 16.7266 112.907 16.0859C112.555 15.4453 112.075 14.9297 111.465 14.5391C110.856 14.1484 110.161 13.9531 109.379 13.9531C108.614 13.9531 107.922 14.1484 107.305 14.5391C106.688 14.9297 106.2 15.4492 105.84 16.0977C105.481 16.7383 105.301 17.4336 105.301 18.1836C105.301 18.9414 105.485 19.6445 105.852 20.293C106.219 20.9336 106.711 21.4492 107.329 21.8398C107.954 22.2305 108.641 22.4258 109.391 22.4258C110.141 22.4258 110.821 22.2305 111.43 21.8398C112.047 21.4492 112.536 20.9336 112.895 20.293C113.262 19.6445 113.446 18.9453 113.446 18.1953ZM127.196 13.1445C127.196 13.7695 126.896 14.1172 126.294 14.1875C126.075 14.2109 125.798 14.1406 125.462 13.9766C125.126 13.8047 124.786 13.7188 124.443 13.7188C123.763 13.7188 123.224 13.8945 122.825 14.2461C122.427 14.5898 122.142 15.0547 121.97 15.6406C121.798 16.2266 121.712 16.8828 121.712 17.6094V23.6562C121.712 24 121.607 24.2734 121.396 24.4766C121.193 24.6797 120.907 24.7812 120.54 24.7812C120.181 24.7812 119.896 24.6797 119.685 24.4766C119.474 24.2734 119.368 23.9961 119.368 23.6445V12.8516C119.368 12.5 119.454 12.2109 119.626 11.9844C119.806 11.7578 120.048 11.6445 120.353 11.6445C120.532 11.6445 120.739 11.7227 120.974 11.8789C121.216 12.0273 121.384 12.2852 121.478 12.6523L121.595 13.4961C121.696 13.2773 121.892 13.0234 122.181 12.7344C122.47 12.4453 122.814 12.1953 123.212 11.9844C123.611 11.7656 124.025 11.6562 124.454 11.6562C125.251 11.6562 125.907 11.75 126.423 11.9375C126.939 12.1172 127.196 12.5195 127.196 13.1445ZM130.154 11.5977C130.381 11.5977 130.592 11.6641 130.787 11.7969C130.99 11.9297 131.135 12.0938 131.221 12.2891L135.205 21.3477L138.615 12.3711C138.701 12.1602 138.842 11.9844 139.037 11.8438C139.24 11.7031 139.463 11.6328 139.705 11.6328C140.025 11.6328 140.299 11.75 140.525 11.9844C140.76 12.2109 140.877 12.4844 140.877 12.8047C140.877 12.9688 140.846 13.1211 140.783 13.2617L136.471 24.5117C136.455 24.6133 136.428 24.7031 136.389 24.7812C136.35 24.8594 136.311 24.9297 136.271 24.9922L135.615 26.6328C135.451 27.0391 135.256 27.4688 135.029 27.9219C134.803 28.3828 134.49 28.8164 134.092 29.2227C133.709 29.6211 133.24 29.957 132.686 30.2305C132.139 30.5039 131.564 30.6406 130.963 30.6406C130.635 30.6406 130.357 30.5195 130.131 30.2773C129.904 30.043 129.791 29.7656 129.791 29.4453C129.791 29.1328 129.896 28.8594 130.107 28.625C130.326 28.3984 130.588 28.2812 130.893 28.2734C131.58 28.2266 132.111 27.957 132.486 27.4648C132.861 26.9805 133.182 26.4062 133.447 25.7422L134.01 24.3125L129.088 13.2734C129.018 13.1094 128.982 12.9414 128.982 12.7695C128.982 12.4492 129.096 12.1758 129.322 11.9492C129.557 11.7148 129.834 11.5977 130.154 11.5977ZM148.804 11.668C149.702 11.668 150.538 11.8398 151.311 12.1836C152.093 12.5273 152.776 13.0039 153.362 13.6133C153.948 14.2227 154.405 14.9219 154.733 15.7109C155.069 16.5 155.237 17.3398 155.237 18.2305C155.237 19.1055 155.069 19.9375 154.733 20.7266C154.397 21.5078 153.932 22.1992 153.339 22.8008C152.753 23.3945 152.069 23.8633 151.288 24.207C150.514 24.5508 149.686 24.7227 148.804 24.7227C147.929 24.7227 147.1 24.5547 146.319 24.2188C145.546 23.8828 144.862 23.418 144.268 22.8242C143.682 22.2305 143.221 21.543 142.886 20.7617C142.55 19.9727 142.382 19.1289 142.382 18.2305C142.382 17.3398 142.55 16.5 142.886 15.7109C143.221 14.9219 143.682 14.2266 144.268 13.625C144.862 13.0156 145.546 12.5391 146.319 12.1953C147.093 11.8438 147.921 11.668 148.804 11.668ZM144.749 18.2539C144.749 19.0117 144.932 19.7031 145.3 20.3281C145.675 20.9453 146.171 21.4375 146.788 21.8047C147.405 22.1719 148.081 22.3555 148.815 22.3555C149.565 22.3555 150.245 22.168 150.854 21.793C151.471 21.4102 151.96 20.9062 152.319 20.2812C152.686 19.6562 152.87 18.9727 152.87 18.2305C152.87 17.4727 152.69 16.7773 152.331 16.1445C151.971 15.5039 151.483 14.9922 150.866 14.6094C150.257 14.2266 149.569 14.0352 148.804 14.0352C148.03 14.0352 147.339 14.2305 146.729 14.6211C146.12 15.0039 145.636 15.5156 145.276 16.1562C144.925 16.7891 144.749 17.4883 144.749 18.2539Z" fill="url(#paint0_linear_166_911)"/>
<defs>
<linearGradient id="paint0_linear_166_911" x1="54.3691" y1="7.66775" x2="156.369" y2="24.3323" gradientUnits="userSpaceOnUse">
<stop stop-color="#0085F9"/>
<stop offset="1" stop-color="#6DACF9"/>
</linearGradient>
<clipPath id="clip0_166_911">
<rect width="46.3691" height="32" fill="white"/>
</clipPath>
</defs>
</svg>
