<svg width="24" height="24" viewBox="0 0 24 24" fill="none" xmlns="http://www.w3.org/2000/svg">
<g id="mail-01" clip-path="url(#clip0_86_2648)">
<g id="elements">
<path id="Vector" d="M2 6L8.91302 9.91697C11.4616 11.361 12.5384 11.361 15.087 9.91697L22 6" stroke="#98A2B3" stroke-width="1.25" stroke-linejoin="round"/>
<path id="Vector_2" d="M2.01576 13.4756C2.08114 16.5411 2.11383 18.0739 3.24495 19.2093C4.37608 20.3448 5.95033 20.3843 9.09883 20.4634C11.0393 20.5122 12.9607 20.5122 14.9012 20.4634C18.0497 20.3843 19.6239 20.3448 20.755 19.2093C21.8862 18.0739 21.9189 16.5411 21.9842 13.4756C22.0053 12.4899 22.0053 11.51 21.9842 10.5244C21.9189 7.45883 21.8862 5.92606 20.755 4.79063C19.6239 3.6552 18.0497 3.61565 14.9012 3.53654C12.9607 3.48778 11.0393 3.48778 9.09882 3.53653C5.95033 3.61563 4.37608 3.65518 3.24495 4.79062C2.11382 5.92605 2.08113 7.45882 2.01576 10.5243C1.99474 11.51 1.99474 12.4899 2.01576 13.4756Z" stroke="#98A2B3" stroke-width="1.25" stroke-linejoin="round"/>
</g>
<circle id="Ellipse 1" cx="20" cy="4" r="4" fill="#0085F9" stroke="white" stroke-width="2"/>
</g>
<defs>
<clipPath id="clip0_86_2648">
<rect width="24" height="24" fill="white"/>
</clipPath>
</defs>
</svg>
