<svg width="22" height="22" viewBox="0 0 22 22" fill="none" xmlns="http://www.w3.org/2000/svg">
<g id="elements">
<path id="Vector" d="M11.002 7.99988C9.89748 7.99988 9.00204 8.67145 9.00204 9.49988C9.00204 10.3283 9.89748 10.9999 11.002 10.9999C12.1066 10.9999 13.002 11.6715 13.002 12.4999C13.002 13.3283 12.1066 13.9999 11.002 13.9999M11.002 7.99988C11.8729 7.99988 12.6137 8.41728 12.8882 8.99988M11.002 7.99988V6.99988M11.002 13.9999C10.1312 13.9999 9.39041 13.5825 9.11585 12.9999M11.002 13.9999V14.9999" stroke="#F97066" stroke-width="1.5" stroke-linecap="round"/>
<path id="Vector_2" d="M12.5001 1.49994C12.5001 1.49994 11.684 1.49994 11.0001 1.49994C6.52172 1.49994 4.28255 1.49994 2.8913 2.89119C1.50006 4.28243 1.50006 6.5216 1.50006 10.9999C1.50006 15.4783 1.50006 17.7175 2.8913 19.1087C4.28255 20.4999 6.52172 20.4999 11.0001 20.4999C15.4784 20.4999 17.7176 20.4999 19.1088 19.1087C20.5001 17.7175 20.5001 15.4783 20.5001 10.9999C20.5001 10.316 20.5001 9.49994 20.5001 9.49994" stroke="#F97066" stroke-width="1.5" stroke-linecap="round"/>
<path id="Vector_3" d="M20.5738 2.52847C20.8681 2.23694 20.8703 1.76207 20.5787 1.46783C20.2872 1.17358 19.8123 1.17137 19.5181 1.4629L20.5738 2.52847ZM14.9761 5.96294C14.6819 6.25447 14.6797 6.72934 14.9712 7.02359C15.2627 7.31784 15.7376 7.32004 16.0318 7.02851L14.9761 5.96294ZM19.5323 1.72275L19.4015 2.46126H19.4015L19.5323 1.72275ZM20.2767 2.46744L21.0153 2.33678V2.33678L20.2767 2.46744ZM16.0141 0.749948C15.5999 0.74428 15.2595 1.07544 15.2539 1.48961C15.2482 1.90379 15.5794 2.24414 15.9935 2.24981L16.0141 0.749948ZM19.7497 6.006C19.7553 6.42018 20.0957 6.75132 20.5099 6.74562C20.9241 6.73992 21.2552 6.39955 21.2495 5.98538L19.7497 6.006ZM19.5181 1.4629L14.9761 5.96294L16.0318 7.02851L20.5738 2.52847L19.5181 1.4629ZM19.4015 2.46126C19.452 2.4702 19.4794 2.48911 19.4949 2.50455C19.5103 2.52001 19.5293 2.54751 19.5382 2.59809L21.0153 2.33678C20.8912 1.63541 20.3647 1.10849 19.6631 0.984244L19.4015 2.46126ZM19.6631 0.984244C18.6484 0.804541 16.8509 0.761401 16.0141 0.749948L15.9935 2.24981C16.8611 2.26168 18.5295 2.30683 19.4015 2.46126L19.6631 0.984244ZM21.2495 5.98538C21.238 5.14856 21.1948 3.35133 21.0153 2.33678L19.5382 2.59809C19.6925 3.47017 19.7377 5.13853 19.7497 6.006L21.2495 5.98538Z" fill="#F97066"/>
</g>
</svg>
